<svg width="13" height="16" viewBox="0 0 13 16" fill="none" xmlns="http://www.w3.org/2000/svg">
<path d="M1.44444 16C1.04722 16 0.707176 15.8508 0.424306 15.5524C0.141435 15.254 0 14.8952 0 14.4762V5.33333C0 4.91429 0.141435 4.55556 0.424306 4.25714C0.707176 3.95873 1.04722 3.80952 1.44444 3.80952H2.88889C2.88889 2.75556 3.24097 1.85714 3.94514 1.11429C4.64931 0.371429 5.50093 0 6.5 0C7.49907 0 8.35069 0.371429 9.05486 1.11429C9.75903 1.85714 10.1111 2.75556 10.1111 3.80952H11.5556C11.9528 3.80952 12.2928 3.95873 12.5757 4.25714C12.8586 4.55556 13 4.91429 13 5.33333V14.4762C13 14.8952 12.8586 15.254 12.5757 15.5524C12.2928 15.8508 11.9528 16 11.5556 16H1.44444ZM1.44444 14.4762H11.5556V5.33333H1.44444V14.4762ZM6.5 9.90476C7.49907 9.90476 8.35069 9.53333 9.05486 8.79048C9.75903 8.04762 10.1111 7.14921 10.1111 6.09524H8.66667C8.66667 6.73016 8.45602 7.26984 8.03472 7.71429C7.61343 8.15873 7.10185 8.38095 6.5 8.38095C5.89815 8.38095 5.38657 8.15873 4.96528 7.71429C4.54398 7.26984 4.33333 6.73016 4.33333 6.09524H2.88889C2.88889 7.14921 3.24097 8.04762 3.94514 8.79048C4.64931 9.53333 5.50093 9.90476 6.5 9.90476ZM4.33333 3.80952H8.66667C8.66667 3.1746 8.45602 2.63492 8.03472 2.19048C7.61343 1.74603 7.10185 1.52381 6.5 1.52381C5.89815 1.52381 5.38657 1.74603 4.96528 2.19048C4.54398 2.63492 4.33333 3.1746 4.33333 3.80952Z" fill="white"/>
</svg>
