<svg width="48" height="49" viewBox="0 0 48 49" fill="none" xmlns="http://www.w3.org/2000/svg">
<path d="M15.6 4.0835H32.4C38.8 4.0835 44 9.39183 44 15.9252V33.0752C44 36.2158 42.7779 39.2277 40.6024 41.4485C38.427 43.6692 35.4765 44.9168 32.4 44.9168H15.6C9.2 44.9168 4 39.6085 4 33.0752V15.9252C4 12.7846 5.22214 9.77258 7.39756 7.55184C9.57298 5.3311 12.5235 4.0835 15.6 4.0835ZM15.2 8.16683C13.2904 8.16683 11.4591 8.9412 10.1088 10.3196C8.75857 11.698 8 13.5675 8 15.5168V33.4835C8 37.5464 11.22 40.8335 15.2 40.8335H32.8C34.7096 40.8335 36.5409 40.0591 37.8912 38.6807C39.2414 37.3023 40 35.4328 40 33.4835V15.5168C40 11.4539 36.78 8.16683 32.8 8.16683H15.2ZM34.5 11.2293C35.163 11.2293 35.7989 11.4982 36.2678 11.9768C36.7366 12.4554 37 13.1046 37 13.7814C37 14.4583 36.7366 15.1074 36.2678 15.586C35.7989 16.0646 35.163 16.3335 34.5 16.3335C33.837 16.3335 33.2011 16.0646 32.7322 15.586C32.2634 15.1074 32 14.4583 32 13.7814C32 13.1046 32.2634 12.4554 32.7322 11.9768C33.2011 11.4982 33.837 11.2293 34.5 11.2293ZM24 14.2918C26.6522 14.2918 29.1957 15.3673 31.0711 17.2818C32.9464 19.1962 34 21.7927 34 24.5002C34 27.2076 32.9464 29.8041 31.0711 31.7185C29.1957 33.633 26.6522 34.7085 24 34.7085C21.3478 34.7085 18.8043 33.633 16.9289 31.7185C15.0536 29.8041 14 27.2076 14 24.5002C14 21.7927 15.0536 19.1962 16.9289 17.2818C18.8043 15.3673 21.3478 14.2918 24 14.2918ZM24 18.3752C22.4087 18.3752 20.8826 19.0205 19.7574 20.1691C18.6321 21.3178 18 22.8757 18 24.5002C18 26.1246 18.6321 27.6825 19.7574 28.8312C20.8826 29.9799 22.4087 30.6252 24 30.6252C25.5913 30.6252 27.1174 29.9799 28.2426 28.8312C29.3679 27.6825 30 26.1246 30 24.5002C30 22.8757 29.3679 21.3178 28.2426 20.1691C27.1174 19.0205 25.5913 18.3752 24 18.3752Z" fill="white"/>
</svg>
