<svg width="26" height="32" viewBox="0 0 26 32" fill="none" xmlns="http://www.w3.org/2000/svg">
<path d="M5.15077 7.7785C5.00978 7.773 4.89541 7.89188 4.90539 8.03487C4.95031 8.67325 5.12207 10.2322 5.72886 10.1704C6.49078 10.093 6.87215 9.5257 7.27099 9.59846C7.50473 9.64119 7.76009 10.3511 8.19178 10.4285C8.62348 10.5059 8.99779 10.2478 9.1787 10.0152C9.35961 9.78291 9.2074 10.5833 9.96931 10.5575C10.2667 10.5474 10.475 10.4903 10.6185 10.4243C10.9654 10.2643 11.373 10.2969 11.6766 10.5313C11.6807 10.5347 11.6849 10.5376 11.689 10.541C11.7884 10.6189 11.9086 10.662 12.0334 10.6755C12.258 10.7001 12.6123 10.7115 12.9355 10.6028C13.0802 10.5541 13.2345 10.5757 13.3601 10.6637C13.4869 10.7525 13.6911 10.8435 14.0018 10.8532C14.1794 10.8587 14.2988 10.8498 14.3786 10.8346C14.52 10.8075 14.666 10.8278 14.7845 10.9108C14.9675 11.0385 15.2141 11.1832 15.3971 11.1887C15.7269 11.1984 16.1058 10.7974 16.2813 10.8046C16.5146 10.8143 16.7592 11.1599 17.1896 11.1887C17.3897 11.2022 17.5577 11.1549 17.6804 11.0999C17.8255 11.0351 17.9907 11.0614 18.1158 11.1604C18.3047 11.3097 18.5999 11.4899 18.9247 11.4899C19.0936 11.4899 19.2092 11.4658 19.2882 11.4324C19.3806 11.3935 19.4895 11.4214 19.5582 11.4954C19.6509 11.5953 19.8414 11.6938 20.2535 11.6938C20.9335 11.6938 21.0346 11.5335 21.1664 11.2902C21.3041 11.0364 21.3215 9.28202 21.3203 8.64406C21.3203 8.51461 21.2197 8.40927 21.0928 8.40462L5.15077 7.7785Z" fill="white"/>
<path d="M5.32177 6.55078L9.45617 0.510903C9.65039 0.22746 9.97312 0.0641626 10.3121 0.0802385C10.7683 0.101814 11.4213 0.114506 11.8862 0.0455485C12.5196 -0.0479455 15.2753 0.00916621 16.459 0.155964C16.7717 0.194885 17.0471 0.380181 17.203 0.658547L20.5106 6.57024C20.6341 6.79108 20.489 7.07917 20.2395 7.08383C20.2353 7.08383 20.2316 7.08383 20.2274 7.08383C19.9146 7.08383 18.8342 6.74708 18.3534 6.59182C18.1912 6.53936 18.0265 6.50636 17.8568 6.4924C16.8977 6.41245 13.507 6.16708 10.9081 6.44798C10.891 6.44968 10.876 6.45094 10.859 6.45137C10.6444 6.45729 9.21578 6.45898 8.90261 6.42472C8.7583 6.40906 7.33802 6.58167 6.95457 6.78304C6.67384 6.93068 6.34694 6.96918 6.03502 6.91757C5.62287 6.8503 5.24607 6.70477 5.32177 6.55078Z" fill="white"/>
<path d="M6.57029 19.4345C6.51165 19.4413 6.45799 19.4573 6.40975 19.481C6.36109 19.5052 6.31493 19.542 6.27126 19.591C6.22717 19.6401 6.18059 19.7061 6.1311 19.789C6.08161 19.8711 6.0263 19.9752 5.96516 20.1004C5.90444 20.2248 5.83332 20.3771 5.75222 20.556C5.66904 20.7345 5.59294 20.8856 5.5239 21.0082C5.45486 21.1309 5.38832 21.2329 5.32261 21.3145C5.25731 21.3958 5.19201 21.4596 5.12672 21.5053C5.06142 21.551 4.99239 21.5853 4.92044 21.6086C4.84807 21.6314 4.76988 21.6449 4.68546 21.6496C4.60103 21.6542 4.50662 21.6564 4.40306 21.6564H4.15602L4.396 20.3771C4.43883 20.155 4.47834 19.9608 4.51411 19.7962C4.52742 19.7387 4.5636 19.7031 4.62224 19.6896L5.02815 19.5695L5.04146 19.4214C4.77321 19.4307 4.50745 19.4349 4.24378 19.4349C3.99341 19.4349 3.7185 19.4307 3.41865 19.4214L3.39827 19.5695L3.8075 19.7036C3.857 19.7218 3.87696 19.7611 3.86823 19.8203C3.84327 19.9714 3.80959 20.1621 3.76675 20.391L3.5301 21.6568H3.28015C3.12918 21.6568 2.99818 21.6496 2.88796 21.6344C2.77734 21.6196 2.68418 21.5764 2.60724 21.5053C2.5303 21.4343 2.46999 21.3247 2.42466 21.177C2.37974 21.029 2.34689 20.8221 2.32692 20.556C2.30405 20.2899 2.28326 20.0809 2.26412 19.9282C2.24499 19.7759 2.21505 19.6629 2.17471 19.5893C2.13395 19.5157 2.07947 19.47 2.01085 19.4514C1.94181 19.4332 1.84906 19.4239 1.73178 19.4239C1.47476 19.4239 1.26182 19.4332 1.09297 19.4514L1.05928 19.6646C1.20775 19.6672 1.32836 19.6896 1.42069 19.7319C1.51302 19.7742 1.58747 19.8351 1.64403 19.9142C1.70017 19.9934 1.74634 20.0911 1.78252 20.2083C1.8187 20.325 1.85489 20.457 1.89065 20.6034C1.91561 20.7113 1.9443 20.8179 1.97674 20.9232C2.00918 21.029 2.04536 21.1292 2.08487 21.2244C2.12438 21.3196 2.16972 21.4068 2.2217 21.4854C2.27327 21.5646 2.33441 21.6306 2.40428 21.6834C2.1901 21.9242 1.9913 22.164 1.80747 22.4022C1.62365 22.6408 1.46103 22.8553 1.3188 23.0452C1.17656 23.231 1.04805 23.3917 0.933265 23.5267C0.818479 23.662 0.715752 23.7686 0.625504 23.8465C0.578508 23.8901 0.531512 23.9252 0.485348 23.9514C0.439184 23.9781 0.392187 24.0001 0.344775 24.0187C0.297364 24.0369 0.246625 24.0529 0.192559 24.0665C0.138493 24.0804 0.0790201 24.0944 0.0133089 24.1079L0 24.259C0.173428 24.2797 0.31192 24.2903 0.415478 24.2903C0.510302 24.2903 0.59348 24.2873 0.665845 24.2814C0.738211 24.2759 0.80309 24.2662 0.862147 24.2522C0.920788 24.2387 0.976102 24.22 1.02767 24.1972C1.07966 24.1739 1.12998 24.1456 1.17989 24.1113C1.2926 24.0356 1.41196 23.9222 1.53839 23.7708C1.66441 23.6193 1.79874 23.445 1.94056 23.2479C2.05535 23.0897 2.17845 22.9209 2.30904 22.7406C2.43963 22.5608 2.57272 22.3848 2.70788 22.2127C2.7528 22.1551 2.79065 22.109 2.82101 22.0735C2.85137 22.0379 2.88173 22.0113 2.9125 21.9944C2.94286 21.9775 2.97489 21.9652 3.00899 21.9584C3.04268 21.9516 3.08676 21.9483 3.14083 21.9483H3.47229L3.24231 23.1793C3.19281 23.4501 3.14748 23.6781 3.10714 23.8638C3.09591 23.9167 3.05765 23.9518 2.99235 23.9704L2.56981 24.0978L2.5565 24.2454C2.83847 24.2387 3.10756 24.2353 3.36458 24.2353C3.62368 24.2353 3.8886 24.2387 4.15894 24.2454L4.17931 24.0978L3.81749 23.9776C3.76342 23.9616 3.74096 23.9222 3.75011 23.8609C3.7813 23.6773 3.82206 23.4501 3.87197 23.1798L4.09822 21.9487H4.43966C4.49581 21.9487 4.54114 21.9521 4.57483 21.9588C4.60852 21.9656 4.63804 21.9779 4.663 21.9948C4.68795 22.0117 4.70916 22.0384 4.72705 22.0739C4.74493 22.1094 4.7678 22.1556 4.79442 22.2131C4.86429 22.3832 4.93167 22.5583 4.99738 22.7394C5.06267 22.9204 5.12256 23.0901 5.17663 23.2483C5.244 23.4454 5.31512 23.6193 5.38956 23.7712C5.46401 23.9222 5.54261 24.0356 5.62621 24.1117C5.66447 24.146 5.7044 24.1748 5.74599 24.1976C5.78757 24.2205 5.83499 24.2387 5.88822 24.2526C5.94145 24.2662 6.00218 24.2763 6.0708 24.2818C6.13942 24.2877 6.2201 24.2907 6.31243 24.2907C6.41391 24.2907 6.547 24.2801 6.71127 24.2594L6.73165 24.1084C6.67301 24.0948 6.61936 24.0809 6.57112 24.0669C6.52287 24.0534 6.47713 24.0373 6.43429 24.0191C6.39145 24.0005 6.35194 23.9785 6.31617 23.9518C6.27999 23.9256 6.24547 23.8905 6.21137 23.8469C6.14815 23.7691 6.08494 23.662 6.02214 23.5254C5.95892 23.3892 5.88905 23.2293 5.81253 23.0457C5.73559 22.8557 5.65116 22.6446 5.55883 22.4128C5.4665 22.1809 5.36045 21.9453 5.24109 21.7042C5.33342 21.6513 5.422 21.5853 5.50643 21.5049C5.59086 21.4245 5.67237 21.3348 5.75139 21.2363C5.83041 21.1377 5.90569 21.0345 5.97805 20.9266C6.05 20.8191 6.11904 20.7113 6.18434 20.6034C6.27459 20.457 6.35818 20.3254 6.43595 20.21C6.51372 20.094 6.59649 19.9967 6.68466 19.9176C6.77283 19.8385 6.87098 19.7776 6.98036 19.7353C7.08974 19.693 7.2195 19.6693 7.37088 19.6646L7.39126 19.4514C7.22241 19.4332 7.01612 19.4239 6.77283 19.4239C6.69672 19.4243 6.62893 19.4277 6.57029 19.4345Z" fill="white"/>
<path d="M12.6611 19.2755C12.498 19.2755 12.3121 19.4257 12.1025 19.7261C12.021 19.8424 11.8268 20.0878 11.5199 20.4643C11.3614 20.6581 11.242 20.8108 11.1605 20.922C11.005 21.1348 10.6814 21.4602 10.1907 21.898C10.0792 21.9974 9.95692 22.1121 9.82467 22.2424C9.20125 22.8524 8.80573 23.2171 8.63854 23.3355C8.62482 23.3216 8.61775 23.2763 8.61775 23.2002C8.61775 23.1244 8.62939 22.9742 8.65268 22.7496C8.67389 22.525 8.68429 22.3841 8.68429 22.3278C8.68429 22.2496 8.7134 22.0473 8.77121 21.7208C8.82694 21.3967 8.85522 21.2177 8.85522 21.1847C8.91553 20.6454 8.97126 20.2375 9.02283 19.9604C9.0902 19.6034 9.12389 19.4079 9.12389 19.3749C9.12389 19.2827 9.09186 19.1913 9.02782 19.0995C8.96377 19.0086 8.87726 18.9629 8.76788 18.9629C8.68179 18.9629 8.5982 19.0289 8.51668 19.16C8.43517 19.2912 8.38152 19.479 8.35615 19.7227L8.26174 20.7769C8.14529 22.0473 8.05837 22.8647 8.00014 23.2293C7.89783 23.8677 7.84668 24.2337 7.84668 24.3259C7.84668 24.548 7.92819 24.6597 8.09122 24.6597C8.25384 24.6597 8.36946 24.6174 8.4385 24.5332C8.50712 24.4494 8.56618 24.3593 8.61484 24.262C8.69635 24.1013 8.76996 23.9824 8.83651 23.9054C8.90263 23.8284 9.05568 23.6977 9.29524 23.5132C9.46284 23.3855 9.79223 23.091 10.2842 22.6295C10.7762 22.1679 11.242 21.6759 11.6816 21.1534C11.9445 20.8438 12.1075 20.6923 12.1699 20.6991L12.1558 21.1285C11.9977 22.3917 11.9187 23.2319 11.9187 23.6477C11.9187 24.3813 12.0455 24.7481 12.2988 24.7481C12.3662 24.7481 12.4569 24.6863 12.5708 24.562C12.6848 24.4376 12.7417 24.3267 12.7417 24.2303C12.7417 24.185 12.7143 24.1084 12.6598 23.9997C12.6049 23.8906 12.5779 23.745 12.5779 23.5631C12.5779 22.896 12.6698 21.8443 12.8536 20.408C12.9164 19.9042 12.948 19.6355 12.948 19.6025C12.948 19.5222 12.9222 19.4473 12.8715 19.3792C12.8195 19.3098 12.7496 19.2755 12.6611 19.2755Z" fill="white"/>
<path d="M25.9544 23.6743C25.924 23.6468 25.8741 23.6333 25.8042 23.6333H25.5776L24.1473 19.7793H22.6717C22.6018 19.7793 22.5519 19.7924 22.5216 19.8199C22.4912 19.8474 22.4762 19.8829 22.4762 19.9282C22.4762 19.9735 22.4916 20.009 22.5216 20.0365C22.5519 20.064 22.6018 20.0771 22.6717 20.0771H23.5372L22.2429 23.6333H22.0163C21.9464 23.6333 21.8965 23.6468 21.8661 23.6743C21.8358 23.7014 21.8208 23.7374 21.8208 23.7826C21.8208 23.8249 21.8362 23.8605 21.8661 23.8892C21.8965 23.9176 21.9464 23.9315 22.0163 23.9315H23.1117C23.1816 23.9315 23.2315 23.9176 23.2619 23.8892C23.2922 23.8605 23.3072 23.8253 23.3072 23.7826C23.3072 23.7374 23.2922 23.7014 23.2619 23.6743C23.2315 23.6468 23.1816 23.6333 23.1117 23.6333H22.5499L22.9441 22.5435H24.8701L25.2715 23.6333H24.7125C24.6406 23.6333 24.589 23.6468 24.559 23.6743C24.5287 23.7014 24.5137 23.7374 24.5137 23.7826C24.5137 23.8249 24.5291 23.8605 24.559 23.8892C24.5894 23.9176 24.6406 23.9315 24.7125 23.9315H25.8046C25.8745 23.9315 25.9244 23.9176 25.9548 23.8892C25.9851 23.8605 26.0001 23.8253 26.0001 23.7826C25.9997 23.7374 25.9847 23.701 25.9544 23.6743ZM23.0552 22.2457L23.84 20.0771H23.9481L24.7574 22.2457H23.0552Z" fill="white"/>
<path d="M13.9932 18.3027V25.4083H21.0122V18.3027H13.9932ZM19.5553 24.1971C19.3981 23.8845 19.2892 23.4326 19.1731 23.0993C18.961 22.4605 18.7289 22.0501 17.9916 22.0501H17.7932V24.1971H17.2126V22.0501H17.0076C16.2698 22.0501 16.0377 22.46 15.8194 23.0993C15.71 23.4331 15.6006 23.8849 15.4505 24.1971H14.8424C15.0404 23.7664 15.1498 23.3146 15.3003 22.8772C15.5328 22.2172 15.826 21.7586 16.5434 21.6681L14.9106 19.5143H15.6072L17.035 21.5915H17.2126V19.5143H17.7932V21.5915H17.9778L19.3985 19.5143H20.0956L18.4628 21.6681C19.1868 21.7447 19.4805 22.2033 19.7059 22.87C19.8631 23.3146 19.9725 23.7664 20.1638 24.1971H19.5553Z" fill="white"/>
<path d="M5.72864 13.2182C6.2535 12.9255 11.9749 13.2182 11.9749 13.2182C11.9749 13.2182 13.2713 13.4509 15.1694 13.3862C15.3449 13.3803 15.5209 13.3883 15.6935 13.4188C16.0203 13.4759 16.3714 13.489 16.6122 13.4898C16.7952 13.4902 16.9769 13.5254 17.1474 13.593C17.5741 13.7614 18.0162 13.8003 18.3173 13.8029C18.5353 13.8046 18.7511 13.841 18.9545 13.9209C19.2714 14.0453 19.6424 14.0969 19.6424 14.0969C19.1853 15.13 19.3887 15.5691 19.2868 16.6796C19.2701 16.8624 19.2814 16.6551 19.2518 17.0929H20.4338C20.4292 17.1602 20.4513 16.8095 20.4338 17.0929C20.4675 16.6022 20.4775 15.8534 20.4475 15.4401C20.4176 15.0268 20.5561 15.1685 20.759 14.4197C20.759 14.4197 20.848 14.0322 20.8351 13.8515C20.8351 13.8515 21.2365 13.1924 20.4047 12.9301C19.5729 12.6674 18.0828 12.535 17.3171 12.4051C16.499 12.2664 13.5986 12.3078 13.159 12.2008C12.7194 12.0938 11.448 11.9381 10.4823 11.9381C9.51702 11.9381 6.67854 11.7951 5.72282 12.0383C5.72282 12.0383 5.66584 11.6948 5.25369 11.6948C4.728 11.6948 4.68018 12.5215 4.68018 12.5215C4.68018 12.5215 4.68558 16.9389 4.73507 18.2106H5.84509L5.72864 13.2182Z" fill="white"/>
<path d="M18.8956 30.814C18.8129 30.7556 14.3965 30.7103 12.4975 30.7103C10.5985 30.7103 7.90895 30.5352 7.90895 30.5352C7.90895 30.5352 6.65337 30.0102 6.36017 29.9844C6.06696 29.9586 5.96507 29.8092 5.96507 29.8092L5.84612 25.5005H4.65625L4.83425 30.0423C4.83425 30.0423 4.75773 30.9371 6.18216 31.1702C7.46312 31.7439 7.95054 31.7439 7.95054 31.7439C7.95054 31.7439 9.21569 31.8826 11.5347 31.8826C13.8537 31.8826 15.5531 31.8107 16.6469 31.9689C17.1106 32.0358 19.6317 31.9736 19.6317 31.9736C19.6317 31.9736 20.0759 31.9287 20.0759 31.1897C20.0759 30.6799 19.9915 28.3518 19.9611 26.6182H18.7713L18.8956 30.814Z" fill="white"/>
</svg>
