<svg width="49" height="49" viewBox="0 0 49 49" fill="none" xmlns="http://www.w3.org/2000/svg">
<g clip-path="url(#clip0_87_74)">
<path fill-rule="evenodd" clip-rule="evenodd" d="M40.3782 9.04451C40.8828 8.83216 41.435 8.75892 41.9774 8.83242C42.5199 8.90591 43.0327 9.12346 43.4626 9.46241C43.8924 9.80136 44.2235 10.2493 44.4215 10.7597C44.6194 11.27 44.677 11.8241 44.5881 12.3643L39.9576 40.4515C39.5085 43.1608 36.5358 44.7145 34.0511 43.3649C31.9727 42.2359 28.8857 40.4964 26.109 38.6813C24.7207 37.7728 20.4679 34.8634 20.9906 32.7932C21.4397 31.0231 28.5856 24.3713 32.6689 20.4166C34.2716 18.8629 33.5407 17.9666 31.6481 19.3958C26.9461 22.9442 19.4021 28.3403 16.9072 29.8593C14.7063 31.1986 13.5589 31.4273 12.1869 31.1986C9.68381 30.7821 7.36244 30.137 5.46777 29.3509C2.90752 28.2893 3.03206 24.7694 5.46573 23.7445L40.3782 9.04451Z" fill="white"/>
</g>
<defs>
<clipPath id="clip0_87_74">
<rect width="49" height="49" fill="white"/>
</clipPath>
</defs>
</svg>
