<svg width="48" height="49" viewBox="0 0 48 49" fill="none" xmlns="http://www.w3.org/2000/svg">
<path d="M44.9201 12.2498C43.3801 12.9644 41.7201 13.434 40.0001 13.6586C41.7601 12.5765 43.1201 10.8615 43.7601 8.79942C42.1001 9.82025 40.2601 10.5348 38.3201 10.9432C36.7401 9.18734 34.5201 8.1665 32.0001 8.1665C27.3001 8.1665 23.4601 12.0865 23.4601 16.9253C23.4601 17.6194 23.5401 18.2932 23.6801 18.9261C16.5601 18.5586 10.2201 15.0673 6.00008 9.77942C5.26008 11.0657 4.84008 12.5765 4.84008 14.169C4.84008 17.2111 6.34008 19.9061 8.66008 21.4373C7.24008 21.4373 5.92008 21.029 4.76008 20.4165V20.4778C4.76008 24.7244 7.72008 28.2769 11.6401 29.0732C10.3815 29.4248 9.06027 29.4737 7.78008 29.2161C8.32329 30.9566 9.38715 32.4795 10.8221 33.5708C12.2571 34.6621 13.991 35.267 15.7801 35.3003C12.7473 37.7511 8.98807 39.0759 5.12008 39.0569C4.44008 39.0569 3.76008 39.0161 3.08008 38.9344C6.88008 41.4253 11.4001 42.8748 16.2401 42.8748C32.0001 42.8748 40.6601 29.5223 40.6601 17.9461C40.6601 17.5582 40.6601 17.1907 40.6401 16.8028C42.3201 15.5778 43.7601 14.0261 44.9201 12.2498Z" fill="white"/>
</svg>
