<svg width="31" height="41" viewBox="0 0 31 41" fill="none" xmlns="http://www.w3.org/2000/svg">
<path d="M10.9953 22.8429L12.6906 17.2786L8.23438 13.6667H13.7562L15.5 8.2L17.2437 13.6667H22.7656L18.2609 17.2786L19.9562 22.8429L15.5 19.3774L10.9953 22.8429ZM3.875 41V25.9179C2.64792 24.5512 1.69531 22.9893 1.01719 21.2321C0.339062 19.475 0 17.604 0 15.619C0 11.2587 1.50156 7.56548 4.50469 4.53929C7.50781 1.5131 11.1729 0 15.5 0C19.8271 0 23.4922 1.5131 26.4953 4.53929C29.4984 7.56548 31 11.2587 31 15.619C31 17.604 30.6609 19.475 29.9828 21.2321C29.3047 22.9893 28.3521 24.5512 27.125 25.9179V41L15.5 37.0952L3.875 41ZM15.5 27.3333C18.7292 27.3333 21.474 26.1944 23.7344 23.9167C25.9948 21.6389 27.125 18.873 27.125 15.619C27.125 12.3651 25.9948 9.59921 23.7344 7.32143C21.474 5.04365 18.7292 3.90476 15.5 3.90476C12.2708 3.90476 9.52604 5.04365 7.26562 7.32143C5.00521 9.59921 3.875 12.3651 3.875 15.619C3.875 18.873 5.00521 21.6389 7.26562 23.9167C9.52604 26.1944 12.2708 27.3333 15.5 27.3333ZM7.75 35.1917L15.5 33.1905L23.25 35.1917V29.1393C22.1198 29.7901 20.9008 30.3026 19.593 30.6768C18.2852 31.051 16.9208 31.2381 15.5 31.2381C14.0792 31.2381 12.7148 31.051 11.407 30.6768C10.0992 30.3026 8.88021 29.7901 7.75 29.1393V35.1917Z" fill="white"/>
</svg>
