<svg width="52" height="38" viewBox="0 0 52 38" fill="none" xmlns="http://www.w3.org/2000/svg">
<path d="M11.8182 38C9.84848 38 8.17424 37.3073 6.79545 35.9219C5.41667 34.5365 4.72727 32.8542 4.72727 30.875H0V4.75C0 3.44375 0.462879 2.32552 1.38864 1.39531C2.31439 0.465104 3.42727 0 4.72727 0H37.8182V9.5H44.9091L52 19V30.875H47.2727C47.2727 32.8542 46.5833 34.5365 45.2045 35.9219C43.8258 37.3073 42.1515 38 40.1818 38C38.2121 38 36.5379 37.3073 35.1591 35.9219C33.7803 34.5365 33.0909 32.8542 33.0909 30.875H18.9091C18.9091 32.8542 18.2197 34.5365 16.8409 35.9219C15.4621 37.3073 13.7879 38 11.8182 38ZM11.8182 33.25C12.4879 33.25 13.0492 33.0224 13.5023 32.5672C13.9553 32.112 14.1818 31.5479 14.1818 30.875C14.1818 30.2021 13.9553 29.638 13.5023 29.1828C13.0492 28.7276 12.4879 28.5 11.8182 28.5C11.1485 28.5 10.5871 28.7276 10.1341 29.1828C9.68106 29.638 9.45455 30.2021 9.45455 30.875C9.45455 31.5479 9.68106 32.112 10.1341 32.5672C10.5871 33.0224 11.1485 33.25 11.8182 33.25ZM4.72727 26.125H6.61818C7.28788 25.4125 8.05606 24.8385 8.92273 24.4031C9.78939 23.9677 10.7545 23.75 11.8182 23.75C12.8818 23.75 13.847 23.9677 14.7136 24.4031C15.5803 24.8385 16.3485 25.4125 17.0182 26.125H33.0909V4.75H4.72727V26.125ZM40.1818 33.25C40.8515 33.25 41.4129 33.0224 41.8659 32.5672C42.3189 32.112 42.5455 31.5479 42.5455 30.875C42.5455 30.2021 42.3189 29.638 41.8659 29.1828C41.4129 28.7276 40.8515 28.5 40.1818 28.5C39.5121 28.5 38.9508 28.7276 38.4977 29.1828C38.0447 29.638 37.8182 30.2021 37.8182 30.875C37.8182 31.5479 38.0447 32.112 38.4977 32.5672C38.9508 33.0224 39.5121 33.25 40.1818 33.25ZM37.8182 21.375H47.8636L42.5455 14.25H37.8182V21.375Z" fill="white"/>
</svg>
