<svg width="16" height="16" viewBox="0 0 16 16" fill="none" xmlns="http://www.w3.org/2000/svg">
<g clip-path="url(#clip0_494_1523)">
<path fill-rule="evenodd" clip-rule="evenodd" d="M13.1851 1.95331C13.3498 1.88397 13.5302 1.86006 13.7073 1.88405C13.8844 1.90805 14.0519 1.97909 14.1922 2.08977C14.3326 2.20044 14.4407 2.34672 14.5053 2.51337C14.57 2.68001 14.5888 2.86094 14.5598 3.03731L13.0478 12.2086C12.9011 13.0933 11.9304 13.6006 11.1191 13.16C10.4404 12.7913 9.43242 12.2233 8.52575 11.6306C8.07242 11.334 6.68375 10.384 6.85442 9.70798C7.00109 9.12998 9.33442 6.95798 10.6678 5.66664C11.1911 5.15931 10.9524 4.86664 10.3344 5.33331C8.79909 6.49198 6.33575 8.25398 5.52109 8.74998C4.80242 9.18731 4.42775 9.26198 3.97975 9.18731C3.16242 9.05131 2.40442 8.84064 1.78575 8.58398C0.949753 8.23731 0.99042 7.08798 1.78509 6.75331L13.1851 1.95331Z" fill="white"/>
</g>
<defs>
<clipPath id="clip0_494_1523">
<rect width="16" height="16" fill="white"/>
</clipPath>
</defs>
</svg>
