<svg width="13" height="16" viewBox="0 0 13 16" fill="none" xmlns="http://www.w3.org/2000/svg">
<path d="M4.58824 12.8C4.16765 12.8 3.8076 12.6433 3.50809 12.33C3.20858 12.0167 3.05882 11.64 3.05882 11.2V1.6C3.05882 1.16 3.20858 0.783333 3.50809 0.47C3.8076 0.156667 4.16765 0 4.58824 0H11.4706C11.8912 0 12.2512 0.156667 12.5507 0.47C12.8502 0.783333 13 1.16 13 1.6V11.2C13 11.64 12.8502 12.0167 12.5507 12.33C12.2512 12.6433 11.8912 12.8 11.4706 12.8H4.58824ZM4.58824 11.2H11.4706V1.6H4.58824V11.2ZM1.52941 16C1.10882 16 0.748775 15.8433 0.449265 15.53C0.149755 15.2167 0 14.84 0 14.4V3.2H1.52941V14.4H9.94118V16H1.52941Z" fill="white"/>
</svg>
