<svg width="37" height="45" viewBox="0 0 37 45" fill="none" xmlns="http://www.w3.org/2000/svg">
<path d="M7.33004 10.8822C7.1294 10.8745 6.96664 11.0408 6.98084 11.2408C7.04476 12.1339 7.2892 14.3149 8.1527 14.2285C9.23697 14.1202 9.77969 13.3265 10.3473 13.4283C10.6799 13.4881 11.0433 14.4812 11.6576 14.5895C12.272 14.6978 12.8046 14.3368 13.0621 14.0113C13.3195 13.6863 13.1029 14.8061 14.1872 14.77C14.6104 14.7558 14.9069 14.6759 15.1111 14.5836C15.6047 14.3599 16.1847 14.4054 16.6167 14.7333C16.6226 14.738 16.6286 14.7422 16.6345 14.7469C16.7759 14.8558 16.947 14.9162 17.1245 14.9351C17.4441 14.9695 17.9484 14.9854 18.4083 14.8333C18.6142 14.7653 18.8338 14.7955 19.0125 14.9186C19.193 15.0428 19.4836 15.1701 19.9258 15.1837C20.1785 15.1914 20.3483 15.179 20.462 15.1577C20.6632 15.1198 20.8709 15.1482 21.0396 15.2642C21.3 15.4429 21.651 15.6453 21.9114 15.653C22.3807 15.6667 22.9199 15.1056 23.1697 15.1156C23.5017 15.1293 23.8497 15.6128 24.4623 15.653C24.747 15.672 24.9861 15.6057 25.1607 15.5288C25.3672 15.4382 25.6022 15.4749 25.7803 15.6134C26.049 15.8223 26.4692 16.0744 26.9315 16.0744C27.1718 16.0744 27.3363 16.0407 27.4487 15.9939C27.5801 15.9395 27.7352 15.9786 27.8329 16.0821C27.9648 16.2218 28.2359 16.3597 28.8224 16.3597C29.7901 16.3597 29.9339 16.1354 30.1215 15.7951C30.3174 15.44 30.3423 12.9856 30.3405 12.0931C30.3405 11.912 30.1973 11.7646 30.0168 11.7581L7.33004 10.8822Z" fill="white"/>
<path d="M7.57345 9.16458L13.457 0.714755C13.7334 0.318217 14.1927 0.0897638 14.675 0.112254C15.3243 0.142438 16.2535 0.160194 16.9152 0.0637225C17.8166 -0.067076 21.7382 0.0128236 23.4226 0.218195C23.8676 0.272645 24.2594 0.531875 24.4814 0.921311L29.1884 9.1918C29.3641 9.50075 29.1576 9.90379 28.8025 9.91031C28.7966 9.91031 28.7912 9.91031 28.7853 9.91031C28.3402 9.91031 26.8026 9.4392 26.1184 9.22199C25.8876 9.1486 25.6532 9.10243 25.4118 9.0829C24.047 8.97104 19.2216 8.62777 15.5232 9.02076C15.4989 9.02312 15.4776 9.0249 15.4533 9.02549C15.1479 9.03378 13.1149 9.03615 12.6693 8.98821C12.4639 8.96631 10.4427 9.20778 9.89705 9.4895C9.49755 9.69606 9.03236 9.74991 8.58847 9.67771C8.00195 9.5836 7.46574 9.38001 7.57345 9.16458Z" fill="white"/>
<path d="M9.35002 27.1887C9.26657 27.1982 9.19022 27.2207 9.12157 27.2538C9.05232 27.2875 8.98663 27.339 8.92448 27.4077C8.86175 27.4763 8.79546 27.5687 8.72503 27.6847C8.6546 27.7995 8.57588 27.9451 8.48888 28.1203C8.40247 28.2943 8.30127 28.5073 8.18586 28.7577C8.06749 29.0074 7.95918 29.2187 7.86093 29.3904C7.76269 29.562 7.66799 29.7046 7.57448 29.8189C7.48156 29.9325 7.38864 30.0219 7.29572 30.0858C7.2028 30.1497 7.10455 30.1977 7.00216 30.2302C6.89918 30.2622 6.78791 30.2811 6.66777 30.2876C6.54762 30.2941 6.41327 30.2971 6.2659 30.2971H5.91434L6.25584 28.5073C6.3168 28.1966 6.37302 27.925 6.42392 27.6947C6.44286 27.6142 6.49435 27.5645 6.57781 27.5456L7.15545 27.3775L7.17439 27.1703C6.79265 27.1834 6.41445 27.1893 6.03922 27.1893C5.68293 27.1893 5.29172 27.1834 4.865 27.1703L4.83599 27.3775L5.41837 27.5651C5.4888 27.5906 5.51721 27.6456 5.50478 27.7285C5.46927 27.9398 5.42133 28.2067 5.36037 28.5269L5.02361 30.2977H4.66791C4.45307 30.2977 4.26664 30.2876 4.1098 30.2663C3.95236 30.2456 3.81979 30.1852 3.7103 30.0858C3.60081 29.9864 3.51499 29.8331 3.45048 29.6265C3.38656 29.4194 3.3398 29.13 3.31139 28.7577C3.27884 28.3854 3.24925 28.093 3.22202 27.8794C3.1948 27.6663 3.15218 27.5083 3.09478 27.4053C3.03677 27.3023 2.95924 27.2384 2.86159 27.2124C2.76334 27.1869 2.63136 27.1739 2.46446 27.1739C2.09869 27.1739 1.79567 27.1869 1.55538 27.2124L1.50744 27.5107C1.71873 27.5142 1.89036 27.5456 2.02175 27.6048C2.15315 27.664 2.25909 27.7492 2.33958 27.8599C2.41948 27.9705 2.48517 28.1072 2.53666 28.2712C2.58815 28.4345 2.63964 28.6192 2.69054 28.824C2.72605 28.9749 2.76689 29.124 2.81306 29.2714C2.85922 29.4194 2.91071 29.5596 2.96694 29.6928C3.02316 29.826 3.08767 29.9479 3.16165 30.058C3.23504 30.1687 3.32205 30.261 3.42148 30.335C3.11667 30.6717 2.83377 31.0073 2.57217 31.3405C2.31058 31.6743 2.07916 31.9744 1.87675 32.2401C1.67434 32.4999 1.49146 32.7248 1.32811 32.9136C1.16476 33.103 1.01857 33.2522 0.89014 33.3611C0.823261 33.422 0.756382 33.4712 0.690687 33.5079C0.624992 33.5452 0.558113 33.5759 0.490642 33.602C0.423171 33.6274 0.350966 33.6499 0.274026 33.6688C0.197086 33.6884 0.112452 33.7079 0.0189396 33.7268L0 33.9381C0.246801 33.9671 0.443887 33.9819 0.591257 33.9819C0.726198 33.9819 0.844567 33.9778 0.947549 33.9695C1.05053 33.9618 1.14286 33.9482 1.2269 33.9287C1.31035 33.9097 1.38907 33.8837 1.46246 33.8517C1.53644 33.8192 1.60805 33.7795 1.67907 33.7316C1.83946 33.6256 2.00933 33.467 2.18925 33.2551C2.36858 33.0433 2.55974 32.7994 2.76157 32.5236C2.92492 32.3023 3.1001 32.0661 3.28594 31.814C3.47178 31.5625 3.66117 31.3162 3.85353 31.0754C3.91745 30.9949 3.9713 30.9304 4.01451 30.8806C4.05771 30.8309 4.10092 30.7936 4.14471 30.77C4.18792 30.7463 4.23349 30.7291 4.28202 30.7197C4.32996 30.7102 4.3927 30.7055 4.46964 30.7055H4.94134L4.61405 32.4277C4.54362 32.8065 4.47911 33.1255 4.4217 33.3854C4.40572 33.4593 4.35127 33.5085 4.25835 33.5345L3.65703 33.7126L3.63809 33.9192C4.03937 33.9097 4.42229 33.905 4.78805 33.905C5.15678 33.905 5.53378 33.9097 5.91848 33.9192L5.94748 33.7126L5.43258 33.5446C5.35564 33.5221 5.32368 33.467 5.3367 33.3812C5.38109 33.1243 5.43909 32.8065 5.51011 32.4283L5.83208 30.7061H6.31798C6.39788 30.7061 6.46239 30.7108 6.51033 30.7203C6.55827 30.7297 6.60029 30.7469 6.63581 30.7706C6.67132 30.7942 6.7015 30.8315 6.72695 30.8812C6.7524 30.931 6.78495 30.9955 6.82283 31.076C6.92226 31.3139 7.01814 31.5589 7.11165 31.8122C7.20457 32.0655 7.2898 32.3029 7.36674 32.5242C7.46262 32.8 7.56382 33.0433 7.66976 33.2557C7.77571 33.467 7.88756 33.6256 8.00653 33.7322C8.06098 33.7801 8.11779 33.8204 8.17698 33.8523C8.23616 33.8843 8.30363 33.9097 8.37939 33.9293C8.45515 33.9482 8.54156 33.9624 8.63921 33.9701C8.73687 33.9784 8.85169 33.9825 8.98308 33.9825C9.12749 33.9825 9.31688 33.9677 9.55066 33.9387L9.57966 33.7274C9.49621 33.7085 9.41986 33.689 9.35121 33.6694C9.28255 33.6505 9.21745 33.628 9.15649 33.6026C9.09553 33.5765 9.0393 33.5457 8.9884 33.5085C8.93691 33.4718 8.88779 33.4226 8.83926 33.3617C8.7493 33.2528 8.65933 33.103 8.56997 32.9119C8.48 32.7213 8.38058 32.4976 8.27168 32.2407C8.16218 31.975 8.04204 31.6796 7.91065 31.3553C7.77926 31.031 7.62833 30.7013 7.45847 30.364C7.58986 30.29 7.71593 30.1977 7.83607 30.0852C7.95622 29.9728 8.07222 29.8473 8.18467 29.7094C8.29712 29.5715 8.40425 29.4271 8.50723 29.2761C8.60962 29.1258 8.70787 28.9749 8.80079 28.824C8.92922 28.6192 9.04818 28.4351 9.15886 28.2736C9.26953 28.1114 9.38731 27.9753 9.51278 27.8646C9.63825 27.7539 9.77793 27.6687 9.93359 27.6095C10.0892 27.5503 10.2739 27.5172 10.4893 27.5107L10.5183 27.2124C10.278 27.1869 9.98448 27.1739 9.63825 27.1739C9.52994 27.1745 9.43347 27.1792 9.35002 27.1887Z" fill="white"/>
<path d="M18.0177 26.9668C17.7857 26.9668 17.5212 27.1769 17.2229 27.5971C17.1069 27.7599 16.8305 28.1031 16.3937 28.6299C16.1682 28.901 15.9984 29.1146 15.8824 29.2703C15.661 29.568 15.2005 30.0231 14.5022 30.6357C14.3435 30.7747 14.1695 30.9351 13.9813 31.1174C13.0942 31.9709 12.5313 32.4811 12.2934 32.6468C12.2739 32.6272 12.2638 32.5639 12.2638 32.4574C12.2638 32.3514 12.2804 32.1413 12.3135 31.8271C12.3437 31.5128 12.3585 31.3157 12.3585 31.237C12.3585 31.1275 12.3999 30.8446 12.4822 30.3877C12.5615 29.9343 12.6017 29.684 12.6017 29.6378C12.6876 28.8832 12.7669 28.3127 12.8403 27.925C12.9361 27.4255 12.9841 27.152 12.9841 27.1059C12.9841 26.9769 12.9385 26.849 12.8474 26.7206C12.7562 26.5933 12.6331 26.5294 12.4774 26.5294C12.3549 26.5294 12.236 26.6217 12.12 26.8052C12.004 26.9887 11.9276 27.2515 11.8915 27.5924L11.7572 29.0673C11.5915 30.8446 11.4678 31.988 11.3849 32.4982C11.2393 33.3913 11.1665 33.9033 11.1665 34.0323C11.1665 34.343 11.2825 34.4993 11.5145 34.4993C11.7459 34.4993 11.9105 34.4401 12.0087 34.3223C12.1064 34.2051 12.1904 34.079 12.2596 33.9429C12.3757 33.718 12.4804 33.5517 12.5751 33.444C12.6692 33.3363 12.887 33.1534 13.2279 32.8953C13.4664 32.7166 13.9352 32.3047 14.6353 31.659C15.3355 31.0133 15.9984 30.3249 16.6239 29.594C16.998 29.1608 17.23 28.9489 17.3188 28.9584L17.2986 29.5591C17.0737 31.3264 16.9613 32.5018 16.9613 33.0836C16.9613 34.1098 17.1418 34.6229 17.5022 34.6229C17.5981 34.6229 17.7271 34.5365 17.8893 34.3625C18.0515 34.1885 18.1326 34.0335 18.1326 33.8985C18.1326 33.8352 18.0935 33.7281 18.016 33.576C17.9378 33.4233 17.8994 33.2197 17.8994 32.9652C17.8994 32.0318 18.0302 30.5605 18.2918 28.5512C18.3811 27.8463 18.4261 27.4705 18.4261 27.4243C18.4261 27.3118 18.3894 27.2071 18.3172 27.1118C18.2432 27.0147 18.1438 26.9668 18.0177 26.9668Z" fill="white"/>
<path d="M36.9349 33.1208C36.8917 33.0824 36.8206 33.0634 36.7212 33.0634H36.3987L34.3633 27.6717H32.2634C32.164 27.6717 32.093 27.69 32.0498 27.7285C32.0066 27.767 31.9852 27.8167 31.9852 27.88C31.9852 27.9433 32.0071 27.9931 32.0498 28.0315C32.093 28.07 32.164 28.0884 32.2634 28.0884H33.4951L31.6532 33.0634H31.3307C31.2312 33.0634 31.1602 33.0824 31.117 33.1208C31.0738 33.1587 31.0525 33.209 31.0525 33.2724C31.0525 33.3315 31.0744 33.3813 31.117 33.4215C31.1602 33.4612 31.2312 33.4807 31.3307 33.4807H32.8896C32.989 33.4807 33.06 33.4612 33.1032 33.4215C33.1465 33.3813 33.1678 33.3321 33.1678 33.2724C33.1678 33.209 33.1465 33.1587 33.1032 33.1208C33.06 33.0824 32.989 33.0634 32.8896 33.0634H32.09L32.6511 31.5388H35.3919L35.9631 33.0634H35.1676C35.0652 33.0634 34.9918 33.0824 34.9492 33.1208C34.906 33.1587 34.8847 33.209 34.8847 33.2724C34.8847 33.3315 34.9066 33.3813 34.9492 33.4215C34.9924 33.4612 35.0652 33.4807 35.1676 33.4807H36.7218C36.8212 33.4807 36.8923 33.4612 36.9355 33.4215C36.9787 33.3813 37 33.3321 37 33.2724C36.9994 33.209 36.9781 33.1581 36.9349 33.1208ZM32.8091 31.1222L33.9259 28.0884H34.0798L35.2315 31.1222H32.8091Z" fill="white"/>
<path d="M19.9133 25.6055V35.5462H29.902V25.6055H19.9133ZM27.8287 33.8518C27.605 33.4144 27.4499 32.7823 27.2848 32.3159C26.983 31.4222 26.6527 30.8481 25.6034 30.8481H25.3211V33.8518H24.4948V30.8481H24.203C23.1531 30.8481 22.8229 31.4216 22.5121 32.3159C22.3565 32.7829 22.2008 33.415 21.9872 33.8518H21.1219C21.4036 33.2493 21.5593 32.6172 21.7735 32.0052C22.1044 31.0819 22.5216 30.4403 23.5425 30.3137L21.2189 27.3006H22.2103L24.2421 30.2066H24.4948V27.3006H25.3211V30.2066H25.5838L27.6056 27.3006H28.5975L26.2739 30.3137C27.3043 30.4208 27.7222 31.0624 28.043 31.9951C28.2667 32.6172 28.4223 33.2493 28.6946 33.8518H27.8287Z" fill="white"/>
<path d="M8.15196 18.4921C8.89887 18.0825 17.0409 18.4921 17.0409 18.4921C17.0409 18.4921 18.8857 18.8176 21.5869 18.727C21.8367 18.7188 22.087 18.73 22.3327 18.7726C22.7978 18.8525 23.2974 18.8709 23.64 18.8721C23.9005 18.8726 24.1591 18.9218 24.4018 19.0165C25.009 19.252 25.6381 19.3065 26.0666 19.31C26.3768 19.3124 26.6839 19.3633 26.9733 19.4751C27.4243 19.6492 27.9523 19.7214 27.9523 19.7214C27.3018 21.1667 27.5912 21.781 27.4462 23.3346C27.4226 23.5903 27.4385 23.3003 27.3965 23.9128H29.0785C29.072 24.0069 29.1034 23.5163 29.0785 23.9128C29.1265 23.2263 29.1407 22.1787 29.0981 21.6005C29.0555 21.0222 29.2525 21.2205 29.5414 20.1729C29.5414 20.1729 29.668 19.6308 29.6497 19.3781C29.6497 19.3781 30.2208 18.456 29.0371 18.089C27.8534 17.7215 25.7328 17.5362 24.6432 17.3546C23.4791 17.1604 19.3515 17.2184 18.7259 17.0687C18.1003 16.919 16.2911 16.7012 14.9168 16.7012C13.5431 16.7012 9.50374 16.5011 8.14368 16.8414C8.14368 16.8414 8.06259 16.3608 7.47607 16.3608C6.72798 16.3608 6.65991 17.5173 6.65991 17.5173C6.65991 17.5173 6.66761 23.6974 6.73804 25.4765H8.31768L8.15196 18.4921Z" fill="white"/>
<path d="M26.8902 43.1095C26.7724 43.0278 20.4876 42.9645 17.7852 42.9645C15.0828 42.9645 11.2553 42.7194 11.2553 42.7194C11.2553 42.7194 9.46852 41.9849 9.05127 41.9488C8.63402 41.9127 8.48901 41.7038 8.48901 41.7038L8.31974 35.6758H6.62646L6.87978 42.0299C6.87978 42.0299 6.77088 43.2817 8.79796 43.6078C10.6209 44.4103 11.3145 44.4103 11.3145 44.4103C11.3145 44.4103 13.1149 44.6045 16.415 44.6045C19.7152 44.6045 22.1335 44.5039 23.6901 44.7252C24.35 44.8187 27.9377 44.7317 27.9377 44.7317C27.9377 44.7317 28.5698 44.669 28.5698 43.635C28.5698 42.9218 28.4497 39.6649 28.4065 37.2395H26.7132L26.8902 43.1095Z" fill="white"/>
</svg>
