<svg xmlns="http://www.w3.org/2000/svg" width="37" height="48" viewBox="0 0 37 48" fill="none">
  <path d="M29.2348 20.9243C28.0598 20.5596 27.8304 20.8567 26.9658 20.5325C26.9658 20.5325 25.0078 20.4649 24.8726 20.1949C24.7374 19.925 19.6191 20.0597 18.9984 19.9112C18.3771 19.7627 16.5809 19.5465 15.2169 19.5465C13.853 19.5465 9.95021 19.3304 8.5996 19.6679C8.5996 19.6679 8.57246 19.209 7.8298 19.209C7.08713 19.209 7.01953 20.3568 7.01953 20.3568C7.01953 20.3568 7.01953 27.5007 7.1276 28.0001C7.23567 28.4994 7.08713 36.9939 7.01953 37.3315L7.23567 44.6915C7.23567 44.6915 7.1276 45.934 9.13994 46.2582C10.9495 47.0552 11.6383 47.0552 11.6383 47.0552C11.6383 47.0552 13.4255 47.248 16.7018 47.248C19.9781 47.248 23.2782 47.2242 23.9238 47.3675C24.5693 47.5107 28.1408 47.3741 28.1408 47.3741C28.1408 47.3741 28.7682 47.3118 28.7682 46.2853C28.7682 45.2589 28.6225 37.3319 28.6225 37.3319C28.6225 37.3319 29.2276 27.3874 29.2748 26.7056C29.3219 26.0239 29.3366 24.9842 29.2943 24.41C29.2519 23.8359 29.4476 24.033 29.7346 22.9928C29.7346 22.9928 29.8603 22.4548 29.8422 22.2035C29.8427 22.2039 30.4097 21.2889 29.2348 20.9243ZM27.6547 26.132C27.5114 27.6744 26.9525 37.2105 26.9525 37.2105L27.101 45.7631C26.9839 45.6822 20.745 45.6189 18.0619 45.6189C15.3793 45.6189 11.5798 45.3756 11.5798 45.3756C11.5798 45.3756 9.80643 44.6462 9.39225 44.6105C8.97807 44.5744 8.8343 44.3673 8.8343 44.3673L8.6991 37.7771L8.65387 28.0448L8.49963 21.3246C9.24086 20.9181 17.324 21.3246 17.324 21.3246C17.324 21.3246 19.3568 21.6831 22.2742 21.5398C23.1349 21.755 24.2965 21.6936 24.2965 21.6936C25.4353 22.2877 26.813 22.112 26.813 22.112C27.2634 22.4224 28.1569 22.5443 28.1569 22.5443C27.5114 23.9797 27.798 24.5895 27.6547 26.132Z" fill="white"/>
  <path d="M37 26.8623H0V39.7261H37V26.8623Z" fill="black"/>
  <path d="M29.7434 28.4795H20.5801V38.3474H29.7434V28.4795Z" fill="white"/>
  <path d="M5.67561 36.1787C5.66276 36.2644 5.69466 36.3187 5.77083 36.3411L6.28212 36.5082L6.25309 36.7134C5.8708 36.7038 5.49709 36.6991 5.13052 36.6991C4.76728 36.6991 4.38737 36.7038 3.98891 36.7134L4.00795 36.5082L4.60494 36.3315C4.69729 36.3058 4.75157 36.2568 4.76728 36.1835C4.82488 35.9255 4.8882 35.6084 4.95866 35.2328L5.28333 33.5232H4.81536C4.73871 33.5232 4.67682 33.528 4.62922 33.5375C4.58113 33.547 4.53591 33.5637 4.49306 33.5875C4.44974 33.6113 4.40737 33.648 4.36405 33.6975C4.32072 33.747 4.26788 33.8112 4.20409 33.8907C4.01271 34.1297 3.82514 34.374 3.64042 34.6239C3.45571 34.8743 3.28194 35.1085 3.11961 35.3285C2.91918 35.6022 2.72971 35.844 2.55166 36.0545C2.37313 36.2644 2.2046 36.422 2.04512 36.5272C1.97514 36.5748 1.90325 36.6148 1.82994 36.6467C1.75662 36.6781 1.67855 36.7038 1.59571 36.7229C1.51288 36.7419 1.42052 36.7557 1.31864 36.7633C1.21676 36.7714 1.0987 36.7757 0.964922 36.7757C0.818769 36.7757 0.622629 36.761 0.37793 36.7324L0.396973 36.5224C0.48933 36.5034 0.573594 36.4844 0.649765 36.4648C0.726412 36.4458 0.797822 36.4239 0.864948 36.3982C0.932073 36.3725 0.997771 36.3415 1.06347 36.3049C1.12869 36.2687 1.19486 36.2197 1.26151 36.1592C1.3891 36.0511 1.53382 35.9031 1.69616 35.715C1.8585 35.5279 2.04036 35.3047 2.24078 35.0466C2.44121 34.7824 2.67115 34.4849 2.93108 34.1535C3.19102 33.8222 3.47142 33.4894 3.7742 33.1552C3.67565 33.0819 3.58948 32.9905 3.51665 32.8805C3.44333 32.771 3.37859 32.6496 3.32289 32.5178C3.26719 32.3859 3.21625 32.2464 3.17007 32.0998C3.12389 31.9536 3.08342 31.8056 3.0482 31.6556C2.99726 31.4523 2.94632 31.269 2.89538 31.1067C2.84444 30.9439 2.77922 30.8082 2.69971 30.6982C2.62021 30.5883 2.515 30.504 2.38408 30.445C2.25364 30.3859 2.08321 30.355 1.87326 30.3517L1.92087 30.0555C2.15938 30.0308 2.46073 30.0175 2.82349 30.0175C2.98916 30.0175 3.12056 30.0303 3.21768 30.0555C3.31479 30.0813 3.39192 30.1446 3.44952 30.2469C3.50665 30.3488 3.54902 30.5054 3.57568 30.7173C3.60281 30.9291 3.63233 31.2195 3.66423 31.589C3.69279 31.9584 3.73897 32.2455 3.80229 32.4511C3.86608 32.6563 3.95225 32.8086 4.06032 32.9072C4.16838 33.0057 4.30073 33.0652 4.4564 33.0862C4.61255 33.1071 4.79727 33.1171 5.01055 33.1171H5.36379L5.69846 31.3595C5.75893 31.0415 5.80653 30.7768 5.84176 30.5668C5.85414 30.484 5.82558 30.4302 5.75607 30.4045L5.17812 30.2184L5.20669 30.0127C5.62991 30.0255 6.01886 30.0317 6.3721 30.0317C6.74486 30.0317 7.12 30.026 7.49943 30.0127L7.48039 30.2184L6.9072 30.3855C6.82437 30.4045 6.77343 30.454 6.75438 30.5335C6.70345 30.7625 6.64775 31.032 6.58728 31.3404L6.24785 33.1171H6.59681C6.74296 33.1171 6.87626 33.1143 6.99528 33.1076C7.11477 33.1009 7.22521 33.0819 7.32757 33.0505C7.42945 33.0186 7.52657 32.971 7.61892 32.9072C7.71128 32.8434 7.80364 32.7548 7.89552 32.642C7.98788 32.5292 8.08261 32.3868 8.17973 32.2169C8.27685 32.0469 8.38444 31.837 8.50203 31.589C8.61676 31.3404 8.71721 31.1291 8.80291 30.9563C8.88907 30.7825 8.96715 30.6382 9.03713 30.524C9.10711 30.4093 9.17281 30.3179 9.23517 30.2493C9.29754 30.1807 9.36228 30.1298 9.43131 30.0965C9.49987 30.0632 9.57509 30.0413 9.6584 30.0317C9.74123 30.0222 9.83692 30.0175 9.94499 30.0175C10.2887 30.0175 10.5801 30.0303 10.8186 30.0555L10.79 30.3517C10.5767 30.3583 10.393 30.3907 10.2387 30.4497C10.084 30.5088 9.94499 30.593 9.82074 30.703C9.69648 30.813 9.57985 30.9482 9.4694 31.1091C9.3599 31.2695 9.24089 31.4523 9.11378 31.6556C9.02142 31.8056 8.9243 31.9555 8.82242 32.1045C8.72054 32.2545 8.61391 32.3978 8.50203 32.5344C8.39063 32.6711 8.27494 32.7953 8.15593 32.9072C8.03643 33.0186 7.91171 33.1105 7.78079 33.1838C7.94932 33.5185 8.09928 33.846 8.22972 34.1678C8.36016 34.4896 8.47965 34.7829 8.5882 35.0466C8.69627 35.3013 8.79529 35.5237 8.88431 35.7127C8.97334 35.9021 9.06236 36.0511 9.15139 36.1592C9.19947 36.2197 9.2485 36.2687 9.29944 36.3049C9.35038 36.3415 9.40608 36.3725 9.46654 36.3982C9.527 36.4239 9.59175 36.4458 9.6603 36.4648C9.72886 36.4844 9.80408 36.5034 9.88739 36.5224L9.85882 36.7324C9.6265 36.761 9.43846 36.7757 9.29516 36.7757C9.16472 36.7757 9.05094 36.7714 8.95334 36.7633C8.85622 36.7557 8.77053 36.7419 8.69579 36.7229C8.62105 36.7038 8.55392 36.6781 8.49489 36.6467C8.43586 36.6148 8.37968 36.5748 8.32541 36.5272C8.20782 36.422 8.09594 36.2644 7.99121 36.0545C7.886 35.844 7.78555 35.6017 7.69033 35.3285C7.61369 35.1085 7.52942 34.8729 7.43707 34.6215C7.34471 34.3701 7.24902 34.1269 7.15047 33.8907C7.11239 33.8112 7.08049 33.747 7.05526 33.6975C7.02955 33.648 6.99956 33.6113 6.96481 33.5875C6.93005 33.5637 6.88816 33.547 6.84055 33.5375C6.79295 33.528 6.72915 33.5232 6.64965 33.5232H6.16692L5.847 35.2328C5.77702 35.6084 5.71989 35.9236 5.67561 36.1787Z" fill="white"/>
  <path d="M18.3101 31.4377C18.2216 31.4277 17.9912 31.6386 17.6203 32.0685C16.9995 32.7945 16.3411 33.4781 15.646 34.1189C14.951 34.7597 14.4854 35.1686 14.2488 35.3462C13.9103 35.6028 13.6942 35.7842 13.6009 35.8913C13.5071 35.9979 13.4028 36.1631 13.2876 36.3864C13.2191 36.5216 13.1357 36.6468 13.0386 36.763C12.9415 36.8796 12.7782 36.9386 12.5483 36.9386C12.3183 36.9386 12.2031 36.7839 12.2031 36.4754C12.2031 36.3474 12.2755 35.8389 12.4202 34.9525C12.5026 34.4464 12.6254 33.311 12.7901 31.5467L12.9234 30.0823C12.9591 29.7443 13.0353 29.4834 13.15 29.3011C13.2648 29.1187 13.3833 29.0273 13.5047 29.0273C13.6594 29.0273 13.7813 29.0907 13.8717 29.2168C13.9617 29.3439 14.0074 29.471 14.0074 29.5991C14.0074 29.6453 13.9593 29.9162 13.8646 30.4122C13.7922 30.7969 13.7132 31.3634 13.628 32.1127C13.628 32.1589 13.5885 32.4074 13.5095 32.8573C13.4276 33.311 13.3866 33.5919 13.3866 33.7004C13.3866 33.779 13.3719 33.9746 13.3424 34.2865C13.3095 34.5988 13.2933 34.8073 13.2933 34.9125C13.2933 35.0182 13.3033 35.0805 13.3228 35.1001C13.5594 34.9358 14.1179 34.4293 14.9986 33.5819C15.1857 33.401 15.358 33.242 15.5161 33.1039C16.2097 32.496 16.6663 32.0442 16.8862 31.7485C17.0014 31.5938 17.1704 31.382 17.3942 31.113C17.8279 30.5903 18.1021 30.2489 18.2173 30.0875C18.5129 29.67 18.7762 29.4615 19.0061 29.4615C19.1309 29.4615 19.2294 29.5096 19.3018 29.6043C19.3737 29.6996 19.4103 29.8033 19.4103 29.9147C19.4103 29.9609 19.366 30.3337 19.277 31.0335C19.0176 33.0287 18.8876 34.4888 18.8876 35.4157C18.8876 35.6685 18.9262 35.8703 19.0038 36.0222C19.0809 36.1731 19.1194 36.2798 19.1194 36.3426C19.1194 36.4769 19.039 36.6311 18.8781 36.8034C18.7172 36.9758 18.5891 37.0619 18.4934 37.0619C18.1354 37.0619 17.9559 36.5526 17.9559 35.5338C17.9559 34.9558 18.0678 33.789 18.2911 32.0347L18.3101 31.4377Z" fill="white"/>
  <path d="M22.651 30.043L24.6681 32.9279H24.919V30.043H25.7392V32.9279H26.0001L28.0072 30.043H28.9917L26.6852 33.0341C27.7083 33.1403 28.1229 33.7772 28.4414 34.7032C28.6632 35.3207 28.818 35.9481 29.0879 36.5465H28.2291C28.0072 36.1124 27.853 35.4849 27.6887 35.0217C27.3893 34.1343 27.0613 33.5649 26.0192 33.5649H25.7392V36.5465H24.919V33.5649H24.6295C23.5874 33.5649 23.2594 34.1343 22.9504 35.0217C22.7957 35.4849 22.6415 36.1124 22.4291 36.5465H21.5703C21.8502 35.9481 22.0045 35.3207 22.2168 34.7132C22.5448 33.7963 22.9595 33.1598 23.973 33.0341L21.6665 30.043H22.651Z" fill="#000105"/>
  <path d="M34.2962 34.7692H31.5755L31.0185 36.2826H31.8121C31.9106 36.2826 31.9811 36.3016 32.0239 36.3397C32.0668 36.3773 32.0877 36.4273 32.0877 36.4902C32.0877 36.5492 32.0668 36.5982 32.0239 36.6382C31.9811 36.6773 31.9106 36.6972 31.8121 36.6972H30.2644C30.1654 36.6972 30.0949 36.6777 30.0525 36.6382C30.0097 36.5982 29.9883 36.5492 29.9883 36.4902C29.9883 36.4278 30.0097 36.3773 30.0525 36.3397C30.0954 36.3016 30.1659 36.2826 30.2644 36.2826H30.5848L32.4134 31.3439H31.1908C31.0918 31.3439 31.0213 31.3253 30.979 31.2872C30.9361 31.2491 30.9147 31.1996 30.9147 31.1368C30.9147 31.0739 30.9361 31.0244 30.979 30.9863C31.0218 30.9483 31.0923 30.9297 31.1908 30.9297H33.2755L35.2964 36.2821H35.6168C35.7154 36.2821 35.7863 36.3012 35.8287 36.3392C35.8715 36.3769 35.893 36.4268 35.893 36.4897C35.893 36.5487 35.8715 36.5978 35.8287 36.6377C35.7858 36.6768 35.7154 36.6968 35.6168 36.6968H34.0739C33.972 36.6968 33.8997 36.6773 33.8568 36.6377C33.814 36.5978 33.7925 36.5487 33.7925 36.4897C33.7925 36.4273 33.814 36.3769 33.8568 36.3392C33.8997 36.3012 33.972 36.2821 34.0739 36.2821H34.8623L34.2962 34.7692ZM34.1386 34.3555L32.9951 31.3439H32.8423L31.7335 34.3555H34.1386Z" fill="white"/>
  <path d="M7.31543 13.7568C7.31543 13.7568 7.42302 17.2002 8.49941 17.0926C9.57532 16.9851 10.1576 16.2162 10.7236 16.3033C10.9045 16.3314 11.3691 17.3435 11.979 17.4511C12.5888 17.5587 13.1173 17.2002 13.3734 16.877C13.629 16.5542 13.4139 17.6663 14.4902 17.6301C14.9658 17.6144 15.28 17.5144 15.4829 17.4078C15.8171 17.2321 16.216 17.1983 16.5516 17.3721C16.6783 17.4378 16.8116 17.5206 16.943 17.6249C17.041 17.703 17.1519 17.7596 17.2762 17.7777C17.5999 17.8239 18.2678 17.8753 18.8282 17.6377C18.951 17.5859 19.09 17.6235 19.1919 17.7096C19.3576 17.8496 19.6665 18.0248 20.1869 18.0405C20.5177 18.0505 20.7058 18.0262 20.8115 17.9919C20.9391 17.9505 21.0766 17.9653 21.1852 18.0443C21.447 18.2343 21.8617 18.498 22.1583 18.5066C22.6243 18.5199 23.1666 18.0338 23.4075 17.9734C23.506 17.9486 24.0825 18.4671 24.6905 18.507C25.0594 18.5313 25.3517 18.4114 25.5241 18.3133C25.6279 18.2543 25.7574 18.2609 25.8464 18.3404C26.0849 18.5532 26.5824 18.925 27.1418 18.925C27.9249 18.925 27.8968 18.5656 27.8968 18.5656C27.8968 18.5656 27.824 19.2088 29.0189 19.2088C30.2138 19.2088 30.0586 19.0736 30.3086 18.6484C30.5585 18.2233 30.5247 14.6528 30.5247 14.6528L7.31543 13.7568Z" fill="white"/>
  <path d="M7.92498 12.0654L13.9206 3.45432C14.102 3.19391 14.4043 3.04728 14.7209 3.06584C15.355 3.10203 16.449 3.14011 17.1988 3.03109C18.1509 2.89303 22.4936 2.9911 23.9494 3.22485C24.2208 3.26865 24.4545 3.43432 24.5907 3.67331L29.5028 12.3035C29.5028 12.3035 29.5566 12.8057 28.9824 12.8057C28.4759 12.8057 26.545 12.1911 26.0979 12.0469C26.0332 12.0259 25.9732 12.0135 25.9051 12.0078C25.1144 11.9378 19.801 11.4989 15.812 11.924C15.7915 11.9264 15.7744 11.9274 15.7534 11.9279C15.4735 11.9355 13.2027 11.9921 12.9837 11.8912C12.789 11.8012 12.1139 11.9502 11.8959 12.0016C11.8511 12.0121 11.8073 12.0193 11.7616 12.0231C11.5079 12.044 10.5891 12.1368 10.1682 12.4263C9.99731 12.5439 9.80783 12.6296 9.60027 12.6315C8.86236 12.6372 7.77597 12.363 7.92498 12.0654Z" fill="#AA0004"/>
  <path d="M28.733 5.5919C30.1825 5.5919 31.3575 4.41684 31.3575 2.96734C31.3575 1.51783 30.1825 0.342773 28.733 0.342773C27.2835 0.342773 26.1084 1.51783 26.1084 2.96734C26.1084 4.41684 27.2835 5.5919 28.733 5.5919Z" fill="white"/>
  <path d="M29.2642 0.00507897C28.7757 0.0626832 28.2854 0.0417362 27.7969 0.117907C27.2471 0.203599 26.7158 0.521137 26.3487 0.938648C25.8151 1.54563 25.7118 2.35828 25.9608 3.11571C26.0241 3.30851 26.1093 3.49704 26.1893 3.68366C26.1993 3.70698 26.3116 3.97787 26.2278 3.76982C26.2497 3.82457 26.2716 3.87884 26.2921 3.93454C26.4078 4.24827 26.4992 4.56962 26.6496 4.87002C27.0014 5.57317 27.7013 5.92356 28.4577 5.98306C29.0623 6.03067 29.7969 5.92546 30.3092 5.5846C31.5588 4.75243 31.4836 2.8791 30.8676 1.67798C30.7871 1.52088 30.6838 1.38282 30.5767 1.24333C30.5186 1.16811 30.4615 1.09289 30.3968 1.02291C30.361 0.984351 30.3244 0.947694 30.2858 0.912464C30.3539 1.08385 30.422 1.25523 30.4901 1.42662C30.5481 1.95267 29.8412 2.34686 29.3894 2.04884C29.4122 2.06407 29.2194 1.88126 29.3456 2.01361C29.497 2.17262 29.2228 1.82318 29.3389 2.01171C29.438 2.17214 29.2875 1.80985 29.3418 2.0098C29.377 2.13929 29.4132 2.26497 29.4375 2.39732C29.448 2.45492 29.4575 2.51253 29.4665 2.57013C29.4737 2.61346 29.4803 2.65678 29.4865 2.7001C29.4708 2.57918 29.4689 2.57775 29.4813 2.69534C29.4837 2.75342 29.4889 2.8115 29.4884 2.86958C29.4884 2.92766 29.486 2.98574 29.4798 3.04382C29.5013 2.89719 29.5003 2.8791 29.4765 2.99002C29.4422 3.12428 29.5127 2.99955 29.5013 2.95242C29.4803 2.99479 29.456 3.03573 29.4289 3.07477C29.5146 2.96717 29.5189 2.95194 29.4422 3.02906C29.0557 3.38326 29.0561 4.08831 29.4422 4.44298C29.8555 4.82241 30.4439 4.82098 30.8562 4.44298C31.4784 3.87265 31.5374 3.03716 31.4265 2.25498C31.3441 1.67417 31.2127 1.09147 30.8014 0.64539C30.2092 0.00269866 29.1433 -0.0287219 28.6681 0.779165C28.432 1.18049 28.443 1.67989 28.6753 2.07835C28.7367 2.18357 28.8172 2.26735 28.9 2.35257C28.9376 2.39113 29.0166 2.44397 29.0352 2.49444C28.9809 2.34686 28.9838 2.41636 29.0209 2.47968C29.0752 2.57299 29.1299 2.66297 29.178 2.76008C29.1599 2.72343 29.1166 2.57489 29.1695 2.75056C29.1894 2.81626 29.2113 2.88148 29.2285 2.94813C29.2461 3.01478 29.259 3.08238 29.2732 3.14998C29.3151 3.34374 29.2823 3.15951 29.2728 3.13047C29.3104 3.24758 29.2937 3.40896 29.2923 3.53179C29.2918 3.56178 29.3037 3.7265 29.2818 3.74554C29.288 3.70413 29.2937 3.66319 29.2999 3.62177C29.2928 3.66842 29.2832 3.71508 29.2728 3.76126C29.259 3.81838 29.2385 3.87313 29.2228 3.92978C29.1828 4.07498 29.288 3.69223 29.2223 3.91026C29.1823 4.04261 29.2161 3.92026 29.2575 3.87313C29.119 4.03119 29.4399 3.80172 29.2375 3.89789C29.1575 3.93597 29.1628 3.99405 29.2737 3.8917C29.2337 3.92835 29.108 3.94216 29.0561 3.95406C29.0371 3.95835 28.9071 3.98025 28.9067 3.98215C29.0457 3.96501 29.0609 3.96263 28.9528 3.97501C28.9295 3.97739 28.9062 3.97929 28.8829 3.98167C28.7643 3.9912 28.6472 3.99024 28.5287 3.98882C28.2973 3.98596 28.7348 4.05832 28.5177 3.98786C28.4982 3.98167 28.393 3.94835 28.3858 3.95121C28.4258 3.9355 28.5848 4.02595 28.4101 3.95263C28.3116 3.91122 28.5453 4.1245 28.4225 3.95644C28.5596 4.14354 28.4692 4.02976 28.4473 3.98739C28.4215 3.94645 28.3982 3.90408 28.3768 3.86075C28.3306 3.76078 28.3349 3.77268 28.3906 3.89646C28.3292 3.83219 28.3092 3.66176 28.2816 3.57844C28.2435 3.46371 28.2016 3.35088 28.1569 3.23853C28.1026 3.10381 28.045 2.97003 27.9869 2.83721C27.9093 2.66011 27.9683 2.79579 27.9831 2.83245C27.9198 2.67487 27.8693 2.51919 27.8265 2.35495C27.7727 2.14786 27.8303 2.39684 27.8303 2.39637C27.8269 2.34638 27.826 2.29639 27.8279 2.24641C27.8022 2.38875 27.8008 2.40399 27.8231 2.29259C27.8422 2.24022 27.8917 2.12929 27.8008 2.32448C27.885 2.14358 27.6717 2.4235 27.8103 2.30068C27.8584 2.25831 27.9088 2.18547 27.9674 2.15786C27.7641 2.25307 27.9364 2.18642 27.9969 2.14596C28.0269 2.12596 28.0897 2.09787 28.1169 2.07121C28.1849 2.03646 28.144 2.0536 27.9931 2.12263C28.0274 2.11073 28.0621 2.10025 28.0973 2.09121C28.1345 2.08121 28.1726 2.0755 28.2097 2.06598C28.3987 2.01885 27.9631 2.08597 28.2197 2.06407C28.3382 2.05408 28.4568 2.04646 28.5758 2.0417C28.8053 2.03218 29.0362 2.03218 29.2647 2.00504C29.7822 1.9441 30.2906 1.58896 30.2644 1.0053C30.242 0.515424 29.8202 -0.0601423 29.2642 0.00507897Z" fill="white"/>
</svg>